<?xml version="1.0" standalone="no"?>
<!DOCTYPE svg PUBLIC "-//W3C//DTD SVG 1.1//EN" "http://www.w3.org/Graphics/SVG/1.1/DTD/svg11.dtd" >
<svg xmlns="http://www.w3.org/2000/svg">
<metadata>Generated by IcoMoon</metadata>
<defs>
<font id="icomoon" horiz-adv-x="1024">
<font-face units-per-em="1024" ascent="960" descent="-64" />
<missing-glyph horiz-adv-x="1024" />
<glyph unicode="&#x20;" horiz-adv-x="512" d="" />
<glyph unicode="&#xe900;" glyph-name="phone" horiz-adv-x="720" d="M33.211 926.789c-49.816-49.816-47.049-918.832 5.535-960.346 24.908-22.141 143.914-30.443 351.481-24.908l315.503 8.303 8.303 467.719c5.535 321.038-2.768 478.789-24.908 503.697-41.514 49.816-606.097 55.351-655.914 5.535zM636.541 852.065c0-13.838-124.541-30.443-276.757-35.978-207.568-5.535-276.757 0-276.757 27.676 0 24.908 74.724 33.211 276.757 33.211 152.216 0 276.757-11.070 276.757-24.908zM650.378 475.676v-235.243h-567.351v470.486h567.351v-235.243zM520.303 135.265c96.865-5.535 116.238-13.838 116.238-60.886s-19.373-55.351-121.773-55.351c-107.935 0-121.773 5.535-107.935 55.351 11.070 44.281 0 55.351-47.049 55.351s-58.119-11.070-47.049-55.351c13.838-49.816 0-55.351-107.935-55.351s-121.773 8.303-121.773 63.654c0 63.654 11.070 66.422 437.276 52.584z" />
<glyph unicode="&#xe901;" glyph-name="lock" horiz-adv-x="1105" d="M741.053 741.726c-153.6-167.074-212.884-212.884-237.137-188.632-16.168 16.168-86.232 29.642-158.989 29.642-307.2 0-455.411-350.316-237.137-568.589 67.368-67.368 97.011-78.147 234.442-78.147 175.158 0 256 40.421 317.979 161.684 51.2 99.705 51.2 196.716 0 296.421-37.726 75.453-37.726 80.842 43.116 161.684l86.232 83.537 56.589-53.895c67.368-64.674 150.905-75.453 150.905-21.558 0 21.558-29.642 64.674-67.368 99.705-45.811 43.116-59.284 72.758-40.421 91.621s51.2 2.695 102.4-45.811c40.421-40.421 83.537-72.758 94.316-72.758 40.421 0 16.168 94.316-40.421 156.295-43.116 45.811-51.2 70.063-26.947 78.147 51.2 18.863 37.726 88.926-18.863 88.926-29.642 0-140.126-94.316-258.695-218.274zM533.558 404.884c80.842-94.316 80.842-234.442-8.084-320.674-145.516-148.211-417.684-48.505-417.684 153.6 0 237.137 269.474 342.232 425.768 167.074z" />
<glyph unicode="&#xe902;" glyph-name="e6df981b7137" horiz-adv-x="1733" d="M472.615 857.6c-165.415-70.892-472.615-362.338-472.615-448.985 0-66.954 283.569-358.4 421.415-429.292 110.277-55.138 779.815-55.138 890.092 0 137.846 70.892 421.415 362.338 421.415 429.292 0 90.585-307.2 378.092-480.492 452.923-185.108 74.831-598.646 74.831-779.815-3.938zM1346.954 617.354c216.615-153.6 232.369-248.123 63.015-374.154-208.738-153.6-362.338-200.862-622.277-181.169-181.169 11.815-275.692 43.323-405.662 133.908-212.677 149.662-228.431 252.062-59.077 385.969 200.862 149.662 303.262 181.169 590.769 169.354 224.492-7.877 287.508-27.569 433.231-133.908zM689.231 585.846c-55.138-51.2-98.462-129.969-98.462-177.231 0-106.338 169.354-275.692 275.692-275.692s275.692 169.354 275.692 275.692c0 106.338-169.354 275.692-275.692 275.692-43.323 0-126.031-43.323-177.231-98.462zM945.231 463.754c43.323-47.262 39.385-70.892-11.815-126.031-63.015-59.077-70.892-59.077-133.908 0-51.2 55.138-55.138 78.769-11.815 126.031 27.569 35.446 63.015 63.015 78.769 63.015s51.2-27.569 78.769-63.015z" />
<glyph unicode="&#xe903;" glyph-name="close1" d="M0 916.114c0-25.6 95.086-138.971 208.457-256l208.457-212.114-208.457-212.114c-113.371-117.029-208.457-230.4-208.457-256 0-91.429 95.086-36.571 299.886 164.571l212.114 208.457 212.114-208.457c117.029-113.371 230.4-208.457 256-208.457 91.429 0 36.571 95.086-164.571 299.886l-208.457 212.114 208.457 212.114c201.143 204.8 256 299.886 164.571 299.886-25.6 0-138.971-95.086-256-208.457l-212.114-208.457-212.114 208.457c-204.8 201.143-299.886 256-299.886 164.571z" />
<glyph unicode="&#xe904;" glyph-name="user" d="M315.503 928.173c-146.681-62.27-246.314-168.822-296.13-316.886-34.595-103.784-22.141-285.059 24.908-387.459 47.049-101.016 142.53-196.497 243.546-243.546 69.189-33.211 95.481-37.362 224.173-37.362s154.984 4.151 224.173 37.362c101.016 47.049 196.497 142.53 243.546 243.546 33.211 69.189 37.362 95.481 37.362 224.173s-4.151 154.984-37.362 224.173c-47.049 101.016-142.53 196.497-243.546 243.546-65.038 30.443-102.4 37.362-210.335 41.514-112.086 2.768-142.53-1.384-210.335-29.059zM617.168 684.627c55.351-33.211 94.097-113.47 81.643-168.822-12.454-56.735-81.643-132.843-131.459-143.914-99.632-22.141-193.73 49.816-204.8 156.368-5.535 58.119 0 71.957 33.211 112.086 62.27 74.724 145.297 91.33 221.405 44.281zM417.903 384.346c41.514-38.746 153.6-41.514 208.951-6.919l45.665 27.676 49.816-51.2c56.735-59.503 80.259-99.632 80.259-139.762 0-29.059-6.919-29.059-275.373-29.059-152.216 0-279.524 5.535-283.676 12.454-15.222 23.524 20.757 91.33 78.876 150.832 30.443 31.827 59.503 58.119 63.654 58.119 2.768 0 17.989-9.686 31.827-22.141z" />
<glyph unicode="&#xe905;" glyph-name="my" horiz-adv-x="885" d="M338.441 930.495c-124.963-64.217-182.237-152.732-182.237-274.224 0-90.251 27.769-154.468 93.722-215.214l43.39-41.654-67.688-32.976c-124.963-62.481-223.892-220.42-225.627-355.797v-74.631h885.153v74.631c0 140.583-137.112 340.176-255.132 369.681-50.332 13.885-50.332 22.563 6.942 76.366 79.837 76.366 109.342 140.583 109.342 242.983 0 107.607-34.712 173.559-114.549 227.363-62.481 41.654-218.685 43.39-293.315 3.471zM230.834 616.353c5.207-27.769 32.976-76.366 59.010-107.607l48.597-59.010-46.861 31.241c-39.919 26.034-100.664 137.112-100.664 185.708 0 36.447 31.241-1.736 39.919-50.332zM548.447 326.508c98.929-29.505 199.593-121.492 241.247-220.42 13.885-36.447 26.034-72.895 26.034-83.308s-128.434-17.356-373.153-17.356c-414.807 0-402.658-5.207-340.176 118.020 48.597 91.986 142.319 175.295 229.098 203.064 98.929 31.241 114.549 31.241 216.949 0z" />
<glyph unicode="&#xe906;" glyph-name="find" horiz-adv-x="1272" d="M341.333 888.63c-148.945-102.4-341.333-418.909-341.333-558.545 0-114.812 27.927-148.945 192.388-235.83 55.855-31.030 145.842-77.576 195.491-105.503 117.915-65.164 363.055-68.267 499.588-3.103s220.315 170.667 263.758 335.127c18.618 68.267 52.752 152.048 77.576 186.182 46.545 68.267 58.958 260.655 18.618 316.509-46.545 71.37-158.255 102.4-471.661 121.018s-328.921 18.618-434.424-55.855zM837.818 820.364c192.388-99.297 273.067-297.891 161.358-397.188-93.091-83.782-397.188-207.903-558.545-229.624-139.636-15.515-158.255-9.309-195.491 55.855-55.855 105.503-46.545 319.612 15.515 415.806 121.018 183.079 384.776 254.448 577.164 155.152zM1166.739 755.2c21.721-31.030 27.927-80.679 15.515-108.606-15.515-40.339-37.236-21.721-102.4 83.782-77.576 124.121-77.576 130.327-15.515 108.606 34.133-12.412 80.679-49.648 102.4-83.782zM1017.794 240.097c-80.679-121.018-242.036-211.006-378.57-211.006-211.006 0-235.83 49.648-46.545 89.988 93.091 18.618 223.418 68.267 291.685 108.606 158.255 96.194 189.285 96.194 133.43 12.412zM363.055 721.067c-40.339-40.339-21.721-189.285 27.927-207.903 130.327-49.648 229.624 49.648 167.564 167.564-31.030 58.958-152.048 83.782-195.491 40.339zM651.636 513.164c-55.855-68.267-15.515-142.739 77.576-142.739 71.37 0 80.679 12.412 71.37 83.782-9.309 99.297-89.988 127.224-148.945 58.958z" />
<glyph unicode="&#xe907;" glyph-name="phone1" d="M315.503 928.173c-146.681-62.27-246.314-168.822-296.13-316.886-34.595-103.784-22.141-285.059 24.908-387.459 47.049-101.016 142.53-196.497 243.546-243.546 69.189-33.211 95.481-37.362 224.173-37.362s154.984 4.151 224.173 37.362c101.016 47.049 196.497 142.53 243.546 243.546 33.211 69.189 37.362 95.481 37.362 224.173s-4.151 154.984-37.362 224.173c-47.049 101.016-142.53 196.497-243.546 243.546-65.038 30.443-102.4 37.362-210.335 41.514-112.086 2.768-142.53-1.384-210.335-29.059zM664.216 697.081c24.908-24.908 27.676-45.665 27.676-179.892v-152.216h-373.622v143.914c0 123.157 4.151 148.065 29.059 179.892 26.292 34.595 34.595 35.978 159.135 35.978 112.086 0 134.227-4.151 157.751-27.676zM691.892 279.178c0-26.292-12.454-56.735-30.443-76.108-26.292-29.059-41.514-31.827-152.216-31.827-112.086 0-125.924 2.768-156.368 34.595-22.141 20.757-34.595 49.816-34.595 76.108v41.514h373.622v-44.281zM477.405 268.108c-12.454-20.757 19.373-55.351 42.897-45.665 30.443 11.070 24.908 59.503-6.919 59.503-15.222 0-31.827-6.919-35.978-13.838z" />
<glyph unicode="&#xe908;" glyph-name="zhongcao" d="M261.689 914.489c-159.289-82.489-244.622-219.022-256-423.822-8.533-125.156 2.844-201.956 34.133-264.533 25.6-48.356 45.511-133.689 45.511-190.578v-99.556h287.289c329.956 0 440.889 36.978 560.356 193.422 56.889 73.956 76.8 139.378 85.333 275.911 14.222 216.178-42.667 352.711-187.733 463.644-128 96.711-420.978 119.467-568.889 45.511zM739.556 820.622c278.756-199.111 261.689-603.022-28.444-748.089-68.267-36.978-167.822-51.2-318.578-51.2h-221.867v79.644c-2.844 42.667-19.911 108.089-42.667 147.911-51.2 91.022-54.044 292.978-2.844 392.533 125.156 238.933 412.444 324.267 614.4 179.2zM344.178 601.6c-31.289-22.756-59.733-65.422-59.733-93.867 0-65.422 164.978-287.289 213.333-287.289 22.756 0 76.8 48.356 125.156 105.244 91.022 110.933 116.622 244.622 54.044 281.6-65.422 42.667-270.222 36.978-332.8-5.689zM648.533 502.044c5.689-25.6-22.756-85.333-62.578-128-68.267-79.644-68.267-82.489-128-28.444-65.422 59.733-99.556 145.067-76.8 184.889 11.378 14.222 71.111 22.756 136.533 22.756 88.178-5.689 125.156-19.911 130.844-51.2z" />
<glyph unicode="&#xe909;" glyph-name="close" d="M0 916.114c0-25.6 95.086-138.971 208.457-256l208.457-212.114-208.457-212.114c-113.371-117.029-208.457-230.4-208.457-256 0-91.429 95.086-36.571 299.886 164.571l212.114 208.457 212.114-208.457c117.029-113.371 230.4-208.457 256-208.457 91.429 0 36.571 95.086-164.571 299.886l-208.457 212.114 208.457 212.114c201.143 204.8 256 299.886 164.571 299.886-25.6 0-138.971-95.086-256-208.457l-212.114-208.457-212.114 208.457c-204.8 201.143-299.886 256-299.886 164.571z" />
<glyph unicode="&#xe90a;" glyph-name="news" d="M38.642 921.358c-36.709-36.709-38.642-63.758-38.642-473.358s1.932-436.649 38.642-473.358c36.709-36.709 63.758-38.642 488.815-38.642 324.589 0 455.97 5.796 473.358 23.185 15.457 15.457 23.185 117.857 23.185 338.113 0 289.811-1.932 314.928-36.709 334.249-21.253 9.66-52.166 19.321-67.623 19.321-38.642 0-40.574-69.555-1.932-85.011 23.185-7.728 28.981-57.962 28.981-282.083v-270.491h-106.264l5.796 370.958c11.592 602.808 30.913 575.758-430.853 575.758-312.996 0-341.977-3.864-376.755-38.642zM730.325 859.532c32.845-32.845 32.845-790.219 0-823.064s-597.011-32.845-629.857 0c-32.845 32.845-32.845 790.219 0 823.064s597.011 32.845 629.857 0zM154.566 689.509v-115.925h231.849v231.849h-231.849v-115.925zM338.113 689.509c0-63.758-3.864-67.623-71.487-73.419l-73.419-5.796v158.43l73.419-5.796c67.623-5.796 71.487-9.66 71.487-73.419zM473.358 786.113c-23.185-38.642 13.525-57.962 108.196-57.962 81.147 0 94.672 5.796 94.672 38.642s-13.525 38.642-94.672 38.642c-54.098 0-102.4-7.728-108.196-19.321zM473.358 631.547c-23.185-38.642 13.525-57.962 108.196-57.962 81.147 0 94.672 5.796 94.672 38.642s-13.525 38.642-94.672 38.642c-54.098 0-102.4-7.728-108.196-19.321zM160.362 467.321c-21.253-57.962 23.185-69.555 266.626-63.758 224.121 5.796 239.577 7.728 239.577 44.438s-15.457 38.642-247.306 44.438c-210.596 3.864-247.306 0-258.898-25.117zM154.566 283.774c0-36.709 13.525-38.642 260.83-38.642s260.83 1.932 260.83 38.642c0 36.709-13.525 38.642-260.83 38.642s-260.83-1.932-260.83-38.642zM154.566 129.208c0-36.709 13.525-38.642 260.83-38.642s260.83 1.932 260.83 38.642c0 36.709-13.525 38.642-260.83 38.642s-260.83-1.932-260.83-38.642z" />
<glyph unicode="&#xe90b;" glyph-name="e718f1eb8ff8" horiz-adv-x="1141" d="M93.623 886.857c-84.846-73.143-93.623-93.623-93.623-251.611v-175.543l251.611-260.389c140.434-146.286 275.017-263.314 301.349-263.314 49.737 0 450.56 392.046 541.257 526.629 26.331 38.034 46.811 122.88 46.811 184.32 0 90.697-20.48 134.583-102.4 216.503-99.474 99.474-108.251 102.4-269.166 84.846-207.726-20.48-219.429-20.48-421.303 0-146.286 14.629-172.617 8.777-254.537-61.44zM494.446 766.903l61.44-78.994 61.44 78.994c84.846 108.251 260.389 108.251 348.16-2.926 99.474-128.731 61.44-225.28-190.171-476.891l-219.429-219.429-219.429 219.429c-251.611 251.611-289.646 348.16-190.171 476.891 87.771 111.177 263.314 111.177 348.16 2.926z" />
<glyph unicode="&#xe90c;" glyph-name="e718f4c22b49" horiz-adv-x="862" d="M91.621 922.274c-8.084-18.863-10.779-94.316-5.389-167.074 5.389-99.705 18.863-134.737 56.589-140.126 40.421-8.084 45.811 13.474 45.811 167.074 0 142.821-8.084 177.853-40.421 177.853-24.253 0-48.505-16.168-56.589-37.726zM269.474 852.211c0-97.011 8.084-113.179 48.505-102.4 48.505 13.474 48.505 8.084-5.389-86.232-45.811-83.537-72.758-105.095-175.158-123.958-156.295-29.642-172.463-91.621-59.284-210.189 80.842-83.537 83.537-94.316 59.284-207.495-21.558-94.316-18.863-126.653 10.779-158.989 35.032-32.337 56.589-29.642 164.379 21.558l121.263 59.284 105.095-56.589c153.6-86.232 199.411-56.589 177.853 115.874-18.863 129.347-13.474 142.821 64.674 223.663 118.568 121.263 99.705 183.242-61.979 212.884-113.179 18.863-134.737 35.032-183.242 129.347-29.642 59.284-78.147 113.179-105.095 121.263-29.642 8.084-53.895 43.116-59.284 83.537-5.389 43.116-26.947 75.453-53.895 80.842-40.421 8.084-48.505-10.779-48.505-102.4zM479.663 545.011c37.726-61.979 80.842-97.011 140.126-110.484l86.232-18.863-61.979-64.674c-40.421-43.116-59.284-94.316-56.589-158.989 2.695-88.926 0-94.316-51.2-64.674-56.589 29.642-156.295 24.253-239.832-13.474-35.032-13.474-40.421 2.695-32.337 86.232 8.084 88.926-2.695 115.874-59.284 161.684l-70.063 53.895 99.705 24.253c78.147 16.168 113.179 43.116 142.821 107.789 21.558 48.505 43.116 88.926 45.811 88.926 0 0 26.947-40.421 56.589-91.621zM495.832 924.968c-24.253-67.368 0-167.074 43.116-167.074 26.947 0 40.421 26.947 40.421 91.621 0 97.011-56.589 145.516-83.537 75.453zM665.6 943.832c-10.779-10.779-18.863-86.232-18.863-164.379 0-137.432 5.389-145.516 61.979-137.432 53.895 8.084 59.284 24.253 59.284 156.295 0 110.484-10.779 148.211-40.421 156.295-24.253 2.695-51.2 0-61.979-10.779z" />
<glyph unicode="&#xe90d;" glyph-name="e718f42a0f5b" horiz-adv-x="970" d="M231.747 900.716c-102.4-78.147-150.905-202.105-150.905-398.821 0-88.926-18.863-207.495-40.421-261.389-64.674-156.295-56.589-169.768 97.011-169.768 113.179 0 150.905-13.474 202.105-67.368 83.537-88.926 207.495-88.926 291.032 0 51.2 53.895 88.926 67.368 202.105 67.368 153.6 0 164.379 18.863 97.011 180.547-21.558 51.2-40.421 167.074-40.421 256 0 317.979-121.263 452.716-409.6 452.716-129.347-2.695-188.632-16.168-247.916-59.284zM606.316 841.432c115.874-48.505 148.211-113.179 148.211-304.505 2.695-86.232 18.863-202.105 37.726-258.695l37.726-99.705h-689.853l37.726 102.4c18.863 53.895 35.032 169.768 37.726 256 0 188.632 32.337 253.305 142.821 301.811s134.737 48.505 247.916 2.695z" />
<glyph unicode="&#xe90e;" glyph-name="e718f68cfd54" horiz-adv-x="1245" d="M387.459 901.881c-55.351-30.443-130.076-102.4-166.054-157.751-38.746-55.351-102.4-135.611-143.914-177.124-102.4-96.865-110.703-287.827-13.838-376.389 71.957-66.422 157.751-77.492 207.568-27.676 41.514 41.514 44.281 387.459 2.768 428.973-52.584 52.584 44.281 171.589 188.195 235.243 88.562 38.746 152.216 49.816 229.708 35.978 182.659-30.443 343.178-196.497 276.757-276.757-22.141-27.676-30.443-113.47-22.141-246.314 11.070-229.708 5.535-238.011-196.497-293.362-141.146-38.746-154.984-110.703-19.373-110.703 66.422 0 149.449 38.746 282.292 130.076 105.168 69.189 199.265 141.146 210.335 157.751s22.141 88.562 22.141 160.519c0 99.632-13.838 141.146-60.886 179.892-35.978 27.676-96.865 102.4-141.146 166.054-138.378 218.638-442.811 296.13-655.914 171.589zM199.265 364.973c-8.303-130.076-16.605-149.449-49.816-121.773-38.746 33.211-55.351 221.405-19.373 254.616 52.584 55.351 77.492 8.303 69.189-132.843zM1129.168 373.276c5.535-94.097-2.768-130.076-35.978-141.146-33.211-13.838-41.514 8.303-41.514 135.611 0 190.962 63.654 196.497 77.492 5.535z" />
<glyph unicode="&#xe90f;" glyph-name="e718f343e2f3" horiz-adv-x="853" d="M298.667 885.333v-76.8l134.4 6.4c132.267 6.4 132.267 6.4 132.267 70.4s0 64-132.267 70.4l-134.4 6.4v-76.8zM14.933 881.067c-8.533-6.4-14.933-224-14.933-480v-465.067h853.333l-4.267 475.733-6.4 473.6-121.6 6.4c-117.333 6.4-121.6 4.267-128-53.333-6.4-59.733-6.4-59.733-166.4-59.733-157.867 0-160 0-166.4 59.733-6.4 55.467-12.8 57.6-119.467 57.6-61.867 0-119.467-6.4-125.867-14.933zM682.667 586.667c0-23.467-454.4-42.667-507.733-21.333-14.933 4.267-21.333 21.333-14.933 32 19.2 29.867 522.667 19.2 522.667-10.667zM704 362.667c0-12.8-106.667-21.333-277.333-21.333s-277.333 8.533-277.333 21.333c0 12.8 106.667 21.333 277.333 21.333s277.333-8.533 277.333-21.333zM693.333 149.333c8.533-12.8-85.333-21.333-264.533-21.333-172.8 0-279.467 8.533-279.467 21.333 0 27.733 526.933 27.733 544 0z" />
<glyph unicode="&#xe910;" glyph-name="e718f5634602" d="M685.511 886.044c-34.133-42.667-59.733-91.022-59.733-110.933 0-17.067-62.578-68.267-142.222-110.933-110.933-59.733-153.6-71.111-196.267-45.511-204.8 108.089-389.689-153.6-227.556-315.733 48.356-48.356 82.489-56.889 162.133-42.667 79.644 11.378 136.533-2.844 267.378-76.8 91.022-48.356 164.978-105.244 164.978-122.311 0-56.889 102.4-125.156 190.578-125.156 113.778 0 184.889 82.489 173.511 201.956-17.067 170.667-199.111 241.778-315.733 125.156-34.133-31.289-62.578-25.6-184.889 45.511-176.356 99.556-170.667 136.533 28.444 250.311 136.533 79.644 145.067 79.644 221.867 36.978 76.8-45.511 85.333-45.511 162.133 11.378 96.711 73.956 122.311 219.022 48.356 298.667-73.956 82.489-221.867 71.111-292.978-19.911zM896 775.111c0-36.978-22.756-59.733-62.578-65.422-48.356-8.533-65.422 5.689-65.422 45.511 0 28.444 8.533 62.578 19.911 73.956 36.978 36.978 108.089 2.844 108.089-54.044zM250.311 465.067c14.222-68.267-28.444-108.089-88.178-85.333-56.889 19.911-65.422 113.778-11.378 133.689 54.044 22.756 91.022 5.689 99.556-48.356zM896 120.889c0-85.333-110.933-76.8-122.311 8.533-8.533 56.889 0 65.422 56.889 56.889 42.667-5.689 65.422-28.444 65.422-65.422z" />
<glyph unicode="&#xe911;" glyph-name="back" horiz-adv-x="569" d="M233.244 723.911c-128-128-233.244-253.156-233.244-275.911 0-59.733 457.956-512 520.533-512 105.244 0 48.356 125.156-142.222 318.578l-190.578 193.422 190.578 193.422c119.467 122.311 190.578 216.178 190.578 256 0 116.622-96.711 68.267-335.644-173.511z" />
<glyph unicode="&#xe912;" glyph-name="search" d="M138.24 816.64c-261.12-271.36-153.6-696.32 204.8-834.56 138.24-51.2 322.56-20.48 322.56 61.44 0 25.6-71.68 46.080-153.6 46.080-194.56 0-409.6 199.68-409.6 384 0 71.68 56.32 189.44 128 256 66.56 71.68 184.32 128 256 128 163.84 0 384-209.92 384-368.64 0-66.56-35.84-174.080-81.92-235.52-76.8-107.52-71.68-122.88 40.96-215.040 66.56-56.32 133.12-97.28 158.72-102.4 61.44 0 40.96 87.040-35.84 148.48-61.44 51.2-61.44 81.92 5.12 209.92 87.040 184.32 51.2 332.8-128 527.36-189.44 199.68-496.64 194.56-691.2-5.12z" />
<glyph unicode="&#xe913;" glyph-name="shaix" d="M0 867.84c0-51.2 66.56-143.36 153.6-204.8 133.12-102.4 153.6-148.48 153.6-368.64 0-199.68 20.48-266.24 97.28-307.2 148.48-76.8 266.24-61.44 296.96 40.96 15.36 71.68 61.44 87.040 174.080 71.68 107.52-15.36 148.48 0 148.48 56.32 0 51.2-61.44 87.040-163.84 102.4l-168.96 20.48 168.96 5.12c138.24 10.24 163.84 30.72 163.84 138.24s-25.6 128-138.24 128l-143.36 5.12 143.36 102.4c76.8 56.32 138.24 148.48 138.24 204.8 0 87.040-40.96 97.28-512 97.28-460.8 0-512-10.24-512-92.16zM752.64 729.6c-179.2-128-189.44-143.36-189.44-414.72 0-174.080-20.48-271.36-51.2-250.88-25.6 15.36-51.2 138.24-51.2 271.36 0 209.92-20.48 261.12-163.84 378.88l-168.96 138.24 409.6 5.12h409.6l-194.56-128z" />
<glyph unicode="&#xe914;" glyph-name="sjx" horiz-adv-x="1138" d="M0 903.111c0-170.667 477.867-967.111 568.889-967.111s568.889 796.444 568.889 967.111c0 34.133-250.311 56.889-568.889 56.889-307.2 0-568.889-22.756-568.889-56.889z" />
<glyph unicode="&#xe915;" glyph-name="fabu" d="M284.16 903.68c-64-33.28-151.040-102.4-192-156.16-69.12-84.48-79.36-122.88-87.040-281.6-7.68-163.84-2.56-194.56 61.44-289.28 38.4-58.88 115.2-135.68 174.080-174.080 94.72-64 125.44-69.12 289.28-61.44 158.72 7.68 194.56 17.92 281.6 87.040 140.8 112.64 212.48 250.88 212.48 409.6 0 381.44-407.040 640-739.84 465.92zM524.8 570.88v-110.080l256-30.72-138.24-2.56-138.24-5.12 12.8-115.2c7.68-64 5.12-115.2-7.68-115.2s-23.040 51.2-23.040 115.2v115.2l-243.2 10.24 122.88 7.68 120.32 10.24v115.2c0 61.44 7.68 112.64 20.48 112.64 10.24 0 17.92-48.64 17.92-107.52z" />
<glyph unicode="&#xe918;" glyph-name="forward" d="M0 448v-512h1024v266.861c0 198.594-9.309 263.758-40.339 251.345-24.824-6.206-37.236-80.679-37.236-217.212v-207.903h-853.333v834.715l207.903 9.309c130.327 6.206 211.006 24.824 220.315 49.648 9.309 27.927-55.855 37.236-254.448 37.236h-266.861v-512zM775.758 885.527c0-24.824 21.721-52.752 49.648-62.061 65.164-24.824 31.030-68.267-74.473-89.988-186.182-37.236-378.57-285.479-378.57-487.176 0-142.739 71.37-102.4 102.4 55.855 27.927 148.945 158.255 291.685 304.097 344.436 96.194 34.133 96.194 31.030 49.648-21.721-55.855-62.061-71.37-130.327-27.927-130.327 37.236 0 223.418 198.594 223.418 235.83 0 43.442-164.461 198.594-211.006 198.594-21.721 0-37.236-18.618-37.236-43.442z" />
<glyph unicode="&#xe959;" glyph-name="mobile2" d="M768 960h-576c-35.2 0-64-28.798-64-64v-896c0-35.2 28.798-64 64-64h576c35.2 0 64 28.8 64 64v896c0 35.202-28.8 64-64 64zM480-17.782c-27.492 0-49.782 22.29-49.782 49.782s22.29 49.782 49.782 49.782 49.782-22.29 49.782-49.782-22.29-49.782-49.782-49.782zM768 128h-576v704h576v-704z" />
<glyph unicode="&#xea50;" glyph-name="ctrl" d="M576 223.986c0 8.908 3.698 17.77 10.928 24.096l228.478 199.918-228.478 199.918c-13.3 11.636-14.65 31.856-3.010 45.154 11.638 13.3 31.854 14.648 45.154 3.010l256-224c6.944-6.076 10.928-14.854 10.928-24.082s-3.984-18.006-10.928-24.082l-256-224c-13.3-11.638-33.516-10.292-45.154 3.010-5.312 6.070-7.918 13.582-7.918 21.058z" />
</font>
</defs>
</svg>
